<svg width="20" height="32" viewBox="0 0 20 32" fill="none" xmlns="http://www.w3.org/2000/svg">
<path d="M19.0246 10.9867C18.9179 10.7734 18.7579 10.6667 18.5446 10.6667H12.2513L18.4913 0.8C18.598 0.64 18.598 0.426688 18.4913 0.266688C18.3846 0.106688 18.2246 0 18.0113 0H9.47798C9.26467 0 9.10467 0.106688 8.99798 0.266688L0.997984 16.2667C0.891297 16.4267 0.891297 16.64 0.997984 16.8C1.10467 16.96 1.31798 17.0667 1.47798 17.0667H6.9713L0.997984 31.3067C0.891297 31.52 0.997984 31.7867 1.2113 31.9467C1.26461 32 1.3713 32 1.47798 32C1.63798 32 1.79798 31.9467 1.90467 31.84L18.9714 11.5733C19.078 11.4133 19.1313 11.2 19.0246 10.9867ZM3.34461 28.4267L8.2513 16.6934C8.30461 16.5334 8.30461 16.3734 8.19798 16.2134C8.0913 16.1067 7.9313 16.0001 7.7713 16.0001H2.3313L9.79798 1.06669H17.0513L10.758 10.9333C10.6513 11.0933 10.6513 11.3066 10.758 11.4666C10.8647 11.6266 11.0247 11.7333 11.238 11.7333H17.4247L3.34461 28.4267Z" fill="#45CCD2"/>
</svg>
