<svg width="18" height="18" viewBox="0 0 18 18" fill="none" xmlns="http://www.w3.org/2000/svg">
<path fill-rule="evenodd" clip-rule="evenodd" d="M1.6005 7.76697C1.176 7.53222 0.9375 7.12122 0.9375 6.69147C0.9375 6.26097 1.176 5.84997 1.6005 5.61597L7.836 2.16972C8.19383 1.97738 8.59375 1.87671 9 1.87671C9.40625 1.87671 9.80617 1.97738 10.164 2.16972L16.3995 5.61597C16.824 5.84997 17.0625 6.26097 17.0625 6.69147C17.0625 7.12122 16.824 7.53222 16.3995 7.76697L10.164 11.2125C9.80629 11.4052 9.40633 11.5061 9 11.5061C8.59367 11.5061 8.19371 11.4052 7.836 11.2125L1.6005 7.76697ZM2.14425 6.78222L8.37975 10.2277C8.57037 10.3304 8.78349 10.3841 9 10.3841C9.21651 10.3841 9.42963 10.3304 9.62025 10.2277L15.8558 6.78222C15.897 6.75972 15.9375 6.73272 15.9375 6.69147C15.9375 6.64947 15.897 6.62322 15.8558 6.59997L9.62025 3.15447C9.42963 3.05181 9.21651 2.99806 9 2.99806C8.78349 2.99806 8.57037 3.05181 8.37975 3.15447L2.14425 6.59997C2.103 6.62322 2.0625 6.64947 2.0625 6.69147C2.0625 6.73272 2.103 6.75972 2.14425 6.78222Z" fill="white"/>
<path fill-rule="evenodd" clip-rule="evenodd" d="M13.6875 8.4375C13.6875 8.28832 13.7468 8.14524 13.8523 8.03975C13.9577 7.93426 14.1008 7.875 14.25 7.875C14.3992 7.875 14.5423 7.93426 14.6477 8.03975C14.7532 8.14524 14.8125 8.28832 14.8125 8.4375V11.8125C14.8125 12.5584 14.5162 13.2738 13.9887 13.8012C13.4613 14.3287 12.7459 14.625 12 14.625H6C5.25408 14.625 4.53871 14.3287 4.01126 13.8012C3.48382 13.2738 3.1875 12.5584 3.1875 11.8125V8.4375C3.1875 8.28832 3.24676 8.14524 3.35225 8.03975C3.45774 7.93426 3.60082 7.875 3.75 7.875C3.89918 7.875 4.04226 7.93426 4.14775 8.03975C4.25324 8.14524 4.3125 8.28832 4.3125 8.4375V11.8125C4.3125 12.2601 4.49029 12.6893 4.80676 13.0057C5.12323 13.3222 5.55245 13.5 6 13.5H12C12.4476 13.5 12.8768 13.3222 13.1932 13.0057C13.5097 12.6893 13.6875 12.2601 13.6875 11.8125V8.4375Z" fill="white"/>
<path fill-rule="evenodd" clip-rule="evenodd" d="M8.60215 7.33489C8.54995 7.28269 8.50854 7.22072 8.48029 7.15252C8.45204 7.08432 8.4375 7.01122 8.4375 6.93739C8.4375 6.86357 8.45204 6.79047 8.48029 6.72227C8.50854 6.65407 8.54995 6.5921 8.60215 6.53989C8.70757 6.43447 8.85056 6.37524 8.99965 6.37524C9.07347 6.37524 9.14657 6.38979 9.21478 6.41804C9.28298 6.44629 9.34495 6.48769 9.39715 6.53989L12.0222 9.16489C12.1279 9.26989 12.1872 9.41314 12.1872 9.56239V15.5624C12.1872 15.7116 12.1279 15.8547 12.0224 15.9601C11.9169 16.0656 11.7738 16.1249 11.6247 16.1249C11.4755 16.1249 11.3324 16.0656 11.2269 15.9601C11.1214 15.8547 11.0622 15.7116 11.0622 15.5624V9.79564L8.60215 7.33489Z" fill="white"/>
</svg>
