<svg width="16" height="16" viewBox="0 0 16 16" fill="none" xmlns="http://www.w3.org/2000/svg">
<path fill-rule="evenodd" clip-rule="evenodd" d="M7.99983 3.67022C8.3582 3.67083 8.70482 3.79816 8.97835 4.02971C9.25188 4.26125 9.43471 4.58208 9.49448 4.93544H6.50514C6.56493 4.58208 6.74776 4.26126 7.0213 4.02971C7.29484 3.79817 7.64145 3.67083 7.99983 3.67022ZM7.99983 2.14584C8.10112 2.14586 8.20014 2.1759 8.28436 2.23219C8.36858 2.28847 8.43422 2.36847 8.47298 2.46205C8.51174 2.55564 8.52187 2.65862 8.50211 2.75797C8.48234 2.85732 8.43356 2.94858 8.36194 3.0202C8.29031 3.09183 8.19905 3.14061 8.0997 3.16037C8.00035 3.18014 7.89738 3.17 7.80379 3.13124C7.7102 3.09248 7.63021 3.02685 7.57392 2.94263C7.51764 2.85841 7.48759 2.75939 7.48758 2.65809C7.48773 2.52228 7.54174 2.39208 7.63778 2.29604C7.73381 2.20001 7.86402 2.14599 7.99983 2.14584ZM6.45264 5.43547H9.54708C9.61176 5.43546 9.6757 5.42166 9.73462 5.39497C9.79354 5.36829 9.84609 5.32934 9.88875 5.28073C9.93142 5.23212 9.96323 5.17496 9.98205 5.11308C10.0009 5.0512 10.0063 4.98601 9.99789 4.92188C9.95095 4.57013 9.81209 4.23698 9.59532 3.95603C9.37855 3.67507 9.09153 3.45624 8.7632 3.32159C8.89077 3.17509 8.97349 2.99498 9.00148 2.80275C9.02948 2.61053 9.00157 2.4143 8.92108 2.2375C8.8406 2.06071 8.71095 1.9108 8.54759 1.80568C8.38424 1.70056 8.19408 1.64466 7.99983 1.64466C7.80557 1.64466 7.61542 1.70056 7.45207 1.80568C7.28871 1.9108 7.15905 2.06071 7.07857 2.2375C6.99809 2.4143 6.97018 2.61053 6.99818 2.80275C7.02617 2.99498 7.10889 3.17509 7.23645 3.32159C6.90816 3.4562 6.62117 3.67499 6.40441 3.9559C6.18765 4.23681 6.04879 4.5699 6.00183 4.92159C5.99342 4.98574 5.9988 5.05095 6.0176 5.11285C6.03641 5.17476 6.06821 5.23193 6.11089 5.28056C6.15356 5.32919 6.20612 5.36816 6.26505 5.39485C6.32399 5.42154 6.38794 5.43535 6.45264 5.43534V5.43547ZM5.39167 6.83125C5.39167 6.76495 5.41801 6.70136 5.4649 6.65447C5.51178 6.60759 5.57537 6.58125 5.64167 6.58125H10.358C10.4243 6.58125 10.4879 6.60759 10.5348 6.65447C10.5817 6.70136 10.608 6.76495 10.608 6.83125C10.608 6.89755 10.5817 6.96114 10.5348 7.00803C10.4879 7.05491 10.4243 7.08125 10.358 7.08125H5.64164C5.57534 7.08125 5.51175 7.05491 5.46486 7.00803C5.41798 6.96114 5.39164 6.89755 5.39164 6.83125H5.39167ZM12.602 9.16875C12.602 9.23505 12.5757 9.29864 12.5288 9.34553C12.4819 9.39241 12.4184 9.41875 12.352 9.41875H3.64758C3.58127 9.41875 3.51769 9.39241 3.4708 9.34553C3.42392 9.29864 3.39758 9.23505 3.39758 9.16875C3.39758 9.10245 3.42392 9.03886 3.4708 8.99197C3.51769 8.94509 3.58127 8.91875 3.64758 8.91875H12.3521C12.4184 8.91875 12.482 8.94509 12.5289 8.99197C12.5757 9.03886 12.6021 9.10245 12.6021 9.16875H12.602ZM12.602 11.5067C12.602 11.573 12.5757 11.6366 12.5288 11.6835C12.4819 11.7303 12.4184 11.7567 12.352 11.7567H3.64758C3.58127 11.7567 3.51769 11.7303 3.4708 11.6835C3.42392 11.6366 3.39758 11.573 3.39758 11.5067C3.39758 11.4404 3.42392 11.3768 3.4708 11.3299C3.51769 11.283 3.58127 11.2567 3.64758 11.2567H12.3521C12.4184 11.2567 12.482 11.283 12.5289 11.3299C12.5757 11.3768 12.6021 11.4404 12.6021 11.5067H12.602ZM12.602 13.8444C12.602 13.9107 12.5756 13.9743 12.5288 14.0212C12.4819 14.068 12.4183 14.0944 12.352 14.0944H8.81523C8.74893 14.0944 8.68534 14.0681 8.63846 14.0212C8.59157 13.9743 8.56523 13.9107 8.56523 13.8444C8.56523 13.7781 8.59157 13.7145 8.63846 13.6677C8.68534 13.6208 8.74893 13.5944 8.81523 13.5944H12.3521C12.4184 13.5944 12.482 13.6208 12.5289 13.6677C12.5757 13.7145 12.6021 13.7781 12.6021 13.8444H12.602ZM13.7204 15.125V0.875C13.7203 0.775579 13.6807 0.680264 13.6104 0.609963C13.5401 0.539662 13.4448 0.500116 13.3454 0.5H2.6543C2.55487 0.500099 2.45955 0.53964 2.38924 0.609945C2.31894 0.680249 2.2794 0.775574 2.2793 0.875V15.125C2.27936 15.2244 2.31889 15.3198 2.3892 15.3901C2.45952 15.4604 2.55486 15.4999 2.6543 15.5H13.3454C13.4448 15.4999 13.5401 15.4604 13.6104 15.3901C13.6807 15.3198 13.7203 15.2244 13.7204 15.125H13.7204ZM14.2204 0.875C14.2201 0.643019 14.1278 0.420618 13.9638 0.256583C13.7998 0.0925478 13.5774 0.000272924 13.3454 0L2.6543 0C2.42232 0.000272924 2.19992 0.0925478 2.03588 0.256583C1.87184 0.420618 1.77957 0.643019 1.7793 0.875V15.125C1.77954 15.357 1.8718 15.5794 2.03584 15.7435C2.19989 15.9075 2.42231 15.9998 2.6543 16H13.3454C13.5774 15.9998 13.7998 15.9075 13.9638 15.7435C14.1279 15.5794 14.2201 15.357 14.2204 15.125L14.2204 0.875Z" fill="white"/>
</svg>
