<svg width="32" height="20" viewBox="0 0 32 20" fill="none" xmlns="http://www.w3.org/2000/svg">
<path d="M25.2656 13.7132C24.6376 12.4039 22.3909 10.5865 20.2203 8.83055C19.0096 7.85186 17.8656 6.92655 17.1363 6.19724C16.9536 6.01324 16.6803 5.95455 16.439 6.04124C15.9897 6.20392 15.7123 6.32924 15.4937 6.42655C15.1604 6.57586 15.0484 6.62655 14.599 6.67186C14.5011 6.68152 14.4066 6.71271 14.3223 6.76319C14.2379 6.81368 14.1657 6.8822 14.111 6.96386C13.1683 8.37317 12.1923 8.25317 11.5403 8.03455C11.3323 7.96523 11.295 7.87586 11.275 7.79055C11.135 7.20524 11.8377 5.84255 12.7483 4.93186C14.915 2.76386 16.0323 2.22117 18.3923 3.27586C21.0696 4.47317 23.7523 5.41055 23.779 5.41986C23.8617 5.44883 23.9493 5.46117 24.0368 5.4562C24.1243 5.45122 24.21 5.42902 24.2889 5.39087C24.3678 5.35271 24.4384 5.29935 24.4967 5.23385C24.5549 5.16835 24.5996 5.092 24.6283 5.00917C24.7483 4.66117 24.5656 4.28117 24.2176 4.15986C24.1909 4.15055 21.5616 3.23186 18.9376 2.05717C15.8803 0.690485 14.2029 1.59049 11.8069 3.98786C10.8949 4.89986 9.65623 6.74517 9.97623 8.09855C10.1135 8.67455 10.5189 9.10124 11.1215 9.29986C12.6322 9.79855 14.0109 9.32117 15.0375 7.95855C15.4615 7.89324 15.6922 7.79724 16.0389 7.64123C16.1931 7.57156 16.3487 7.50489 16.5055 7.44124C17.2682 8.15724 18.2975 8.99055 19.3815 9.86655C21.3415 11.4519 23.5642 13.2492 24.0642 14.2892C24.3109 14.8025 24.0455 15.1372 23.8655 15.2905C23.6015 15.5172 23.2402 15.5892 23.0442 15.4519C22.8282 15.3039 22.5469 15.2945 22.3242 15.4279C22.2146 15.4932 22.1261 15.5886 22.0691 15.7027C22.0122 15.8169 21.9892 15.945 22.0029 16.0719C22.0482 16.4959 21.6602 16.7385 21.4922 16.8225C21.0655 17.0385 20.6202 17.0012 20.4535 16.8465C20.2669 16.6732 19.9989 16.6225 19.7615 16.7105C19.5242 16.7999 19.3589 17.0185 19.3349 17.2719C19.2949 17.7092 18.9709 18.1292 18.5482 18.2932C18.3442 18.3705 18.0482 18.4172 17.7829 18.1745C17.7015 18.1012 17.6035 18.0488 17.4973 18.0218C17.3912 17.9949 17.28 17.9942 17.1735 18.0198C17.067 18.0458 16.9685 18.0978 16.8868 18.171C16.8052 18.2443 16.7429 18.3366 16.7055 18.4398C16.6802 18.5065 16.6229 18.6665 15.9989 18.6665C15.5549 18.6665 14.7562 18.3665 14.3655 18.1078C13.8975 17.7998 10.9629 15.6105 8.42823 13.4878C8.07223 13.1878 7.45623 12.5451 6.91223 11.9771C6.42954 11.4731 5.98823 11.0158 5.76154 10.8238C5.47754 10.5838 5.05754 10.6198 4.82154 10.9025C4.58423 11.1838 4.61886 11.6052 4.90023 11.8425C5.10692 12.0172 5.50692 12.4398 5.94823 12.8998C6.54292 13.5211 7.15754 14.1638 7.57092 14.5105C10.0536 16.5892 13.0376 18.8332 13.6322 19.2238C14.1229 19.5465 15.1802 19.9998 15.9989 19.9998C16.6562 19.9998 17.1616 19.8491 17.5122 19.5545C17.9815 19.7372 18.5149 19.7385 19.0282 19.5385C19.6349 19.3038 20.1335 18.8305 20.4162 18.2572C20.9415 18.3692 21.5429 18.2905 22.0895 18.0159C22.6242 17.7465 23.0109 17.3345 23.2029 16.8532C23.7335 16.8812 24.2802 16.6932 24.7322 16.3052C25.4976 15.6505 25.7082 14.6319 25.2656 13.7132Z" fill="#45CCD2"/>
<path d="M13.3337 2.6665H7.33368C6.96568 2.6665 6.66699 2.96519 6.66699 3.33319C6.66699 3.70119 6.96568 3.99988 7.33368 3.99988H13.3337C13.7017 3.99988 14.0004 3.70119 14.0004 3.33319C14.0004 2.96519 13.7017 2.6665 13.3337 2.6665ZM27.2204 12.2945C27.0137 11.9892 26.6004 11.9052 26.2951 12.1132L24.3457 13.4225C24.0404 13.6278 23.9591 14.0425 24.1644 14.3478C24.2258 14.4385 24.3084 14.5128 24.4051 14.5642C24.5018 14.6156 24.6096 14.6425 24.7191 14.6425C24.8458 14.6425 24.9751 14.6065 25.0898 14.5292L27.0391 13.2199C27.3444 13.0145 27.4257 12.5999 27.2204 12.2945ZM23.0817 15.4759C22.6044 15.0999 20.4697 12.9146 19.1497 11.5386C18.895 11.2719 18.4724 11.2626 18.207 11.5186C17.9403 11.7733 17.9323 12.1959 18.187 12.4613C18.5297 12.8186 21.5523 15.9693 22.255 16.5239C22.3723 16.6165 22.5175 16.6668 22.667 16.6666C22.863 16.6666 23.059 16.5786 23.1923 16.4119C23.4204 16.1239 23.3711 15.7039 23.0817 15.4759ZM20.4177 16.8132C19.619 16.1745 17.6124 14.0425 17.159 13.5492C16.9083 13.2772 16.4883 13.2612 16.2163 13.5092C15.9456 13.7585 15.927 14.1812 16.1763 14.4519C16.2003 14.4772 18.595 17.0626 19.5843 17.8546C19.7026 17.9485 19.8492 17.9997 20.0003 17.9999C20.195 17.9999 20.3896 17.9132 20.5216 17.7506C20.7511 17.4625 20.7044 17.0425 20.4177 16.8132ZM17.7644 18.1559C16.8137 17.3546 14.8684 15.2839 14.4884 14.8772C14.2364 14.6079 13.8137 14.5932 13.5457 14.8452C13.2764 15.0972 13.263 15.5185 13.5137 15.7879C14.0604 16.3732 15.9217 18.3466 16.9044 19.1759C17.0244 19.2774 17.1765 19.3332 17.3337 19.3332C17.523 19.3332 17.7124 19.2519 17.8444 19.0959C18.0817 18.8132 18.0457 18.3932 17.7644 18.1559Z" fill="#45CCD2"/>
<path d="M7.792 1.51584C6.64931 0.433151 2.08 0.0824629 0.706688 0.00115043C0.517375 -0.00816207 0.342688 0.0544632 0.209375 0.181151C0.143221 0.243488 0.0905202 0.3187 0.0545132 0.40216C0.0185063 0.485621 -4.51153e-05 0.575566 8.23894e-08 0.666463V12.6665C8.23894e-08 13.0345 0.298688 13.3331 0.666688 13.3331H4.66669C4.95469 13.3331 5.21069 13.1478 5.3 12.8732C5.39731 12.5745 7.69469 5.52384 7.99731 2.05715C8.01469 1.85446 7.94 1.65446 7.792 1.51584ZM4.18 11.9998H1.33331V1.38115C3.476 1.55046 5.788 1.91846 6.628 2.32646C6.27469 5.24646 4.676 10.4345 4.18 11.9998ZM31.3333 1.33315C26.0986 1.33315 23.1946 2.67315 23.0733 2.72915C22.9 2.81046 22.7706 2.96115 22.7173 3.14384C22.664 3.32653 22.6906 3.52253 22.7906 3.68515C23.6146 5.01184 26.1946 12.3798 26.6906 14.1772C26.7294 14.3178 26.8133 14.4419 26.9294 14.5302C27.0455 14.6186 27.1874 14.6665 27.3333 14.6665H31.3333C31.7013 14.6665 32 14.3678 32 13.9998V1.99978C32.0001 1.91221 31.9829 1.82548 31.9494 1.74457C31.9159 1.66365 31.8668 1.59013 31.8049 1.52821C31.743 1.4663 31.6694 1.4172 31.5885 1.38373C31.5076 1.35025 31.4209 1.33307 31.3333 1.33315ZM30.6667 13.3331H27.832C27.2 11.2745 25.3333 5.90646 24.292 3.68784C25.3093 3.34253 27.4947 2.74915 30.6667 2.67453V13.3331Z" fill="#45CCD2"/>
</svg>
