<svg width="18" height="18" viewBox="0 0 18 18" fill="none" xmlns="http://www.w3.org/2000/svg">
<path d="M1.11719 3V15.005C1.11719 16.105 2.01219 17 3.11219 17H11.1072C11.6368 17 12.1447 16.79 12.5196 16.416C12.8946 16.042 13.1059 15.5346 13.1072 15.005V11.8515L16.6882 6.1965C16.7749 6.06162 16.834 5.91093 16.8622 5.7531C16.8905 5.59527 16.8872 5.43342 16.8526 5.27686C16.818 5.1203 16.7528 4.97213 16.6608 4.84086C16.5687 4.7096 16.4516 4.59783 16.3162 4.512L15.5672 4.0375C15.2958 3.86643 14.9679 3.80923 14.6547 3.8783C14.3414 3.94738 14.068 4.13716 13.8937 4.4065L13.1072 5.6315V3C13.1072 1.897 12.2102 1 11.1072 1H3.11219C2.58262 1.00132 2.0752 1.21262 1.70121 1.58755C1.32721 1.96248 1.11719 2.47043 1.11719 3ZM13.6842 6.123L15.2242 7.093L12.5192 11.377L10.9842 10.407L13.6842 6.123ZM10.7772 11.1635L11.9272 11.8895L10.6147 12.6945L10.7772 11.1635ZM15.1657 4.6715L15.9142 5.1455C16.1332 5.2855 16.1962 5.574 16.0567 5.791L15.6277 6.459L14.0887 5.4895L14.5247 4.812C14.5917 4.7091 14.6965 4.63668 14.8164 4.61039C14.9363 4.5841 15.0618 4.60605 15.1657 4.6715ZM1.86719 3C1.86719 2.3105 2.42569 1.75 3.11219 1.75H11.1072C11.7962 1.75 12.3572 2.3105 12.3572 3V6.822L10.2697 10.1355C10.2133 10.099 10.1479 10.0787 10.0807 10.077H4.14269C4.04323 10.077 3.94785 10.1165 3.87752 10.1868C3.8072 10.2572 3.76769 10.3525 3.76769 10.452C3.76769 10.5515 3.8072 10.6468 3.87752 10.7172C3.94785 10.7875 4.04323 10.827 4.14269 10.827H10.0587L9.83069 12.977H4.14269C4.04323 12.977 3.94785 13.0165 3.87752 13.0868C3.8072 13.1572 3.76769 13.2525 3.76769 13.352C3.76769 13.4515 3.8072 13.5468 3.87752 13.6172C3.94785 13.6875 4.04323 13.727 4.14269 13.727C10.7307 13.717 9.98619 13.7435 10.1477 13.7135C10.2027 13.7272 10.2598 13.7297 10.3157 13.7207C10.3717 13.7118 10.4252 13.6916 10.4732 13.6615L12.3572 12.506V15.005C12.3561 15.3357 12.2239 15.6525 11.9896 15.8859C11.7553 16.1193 11.4379 16.2503 11.1072 16.25H3.11219C2.78211 16.2496 2.46567 16.1183 2.23228 15.8849C1.99888 15.6515 1.86758 15.3351 1.86719 15.005V3Z" fill="white"/>
<path d="M4.14258 5.02856H10.0806C10.18 5.02856 10.2754 4.98906 10.3457 4.91873C10.4161 4.8484 10.4556 4.75302 10.4556 4.65356C10.4556 4.55411 10.4161 4.45873 10.3457 4.3884C10.2754 4.31807 10.18 4.27856 10.0806 4.27856H4.14258C4.04312 4.27856 3.94774 4.31807 3.87741 4.3884C3.80709 4.45873 3.76758 4.55411 3.76758 4.65356C3.76758 4.75302 3.80709 4.8484 3.87741 4.91873C3.94774 4.98906 4.04312 5.02856 4.14258 5.02856ZM4.14258 7.92756H10.0806C10.18 7.92756 10.2754 7.88806 10.3457 7.81773C10.4161 7.7474 10.4556 7.65202 10.4556 7.55256C10.4556 7.45311 10.4161 7.35773 10.3457 7.2874C10.2754 7.21707 10.18 7.17756 10.0806 7.17756H4.14258C4.04312 7.17756 3.94774 7.21707 3.87741 7.2874C3.80709 7.35773 3.76758 7.45311 3.76758 7.55256C3.76758 7.65202 3.80709 7.7474 3.87741 7.81773C3.94774 7.88806 4.04312 7.92756 4.14258 7.92756Z" fill="white"/>
</svg>
