<svg width="20" height="21" viewBox="0 0 20 21" fill="none" xmlns="http://www.w3.org/2000/svg">
<path d="M10.0166 2.92499C7.25828 2.92499 5.01662 5.16665 5.01662 7.92499V10.3333C5.01662 10.8417 4.79995 11.6167 4.54162 12.05L3.58328 13.6417C2.99162 14.625 3.39995 15.7167 4.48328 16.0833C8.07495 17.2833 11.95 17.2833 15.5416 16.0833C16.55 15.75 16.9916 14.5583 16.4416 13.6417L15.4833 12.05C15.2333 11.6167 15.0166 10.8417 15.0166 10.3333V7.92499C15.0166 5.17499 12.7666 2.92499 10.0166 2.92499Z" stroke="#161618" stroke-width="1.4" stroke-miterlimit="10" stroke-linecap="round"/>
<path d="M11.5583 3.16664C11.3 3.09164 11.0333 3.0333 10.7583 2.99997C9.95831 2.89997 9.19164 2.9583 8.47498 3.16664C8.71664 2.54997 9.31664 2.11664 10.0166 2.11664C10.7166 2.11664 11.3166 2.54997 11.5583 3.16664Z" stroke="#161618" stroke-width="1.5" stroke-miterlimit="10" stroke-linecap="round" stroke-linejoin="round"/>
<path d="M12.5167 16.3834C12.5167 17.7584 11.3917 18.8834 10.0167 18.8834C9.33339 18.8834 8.70006 18.6 8.25006 18.15C7.80006 17.7 7.51672 17.0667 7.51672 16.3834" stroke="#161618" stroke-width="1.5" stroke-miterlimit="10"/>
</svg>
