<svg width="59" height="40" viewBox="0 0 59 40" fill="none" xmlns="http://www.w3.org/2000/svg">
<g clip-path="url(#clip0_6385_267)">
<path d="M55.46 -0.0421143H3.54C1.58828 -0.0421143 0 1.54474 0 3.49473V36.5052C0 38.4552 1.58828 40.0421 3.54 40.0421H55.46C57.4117 40.0421 59 38.4552 59 36.5052V3.49473C59 1.54474 57.4117 -0.0421143 55.46 -0.0421143ZM56.64 36.5052C56.64 37.1537 56.109 37.6842 55.46 37.6842H3.54C2.8887 37.6842 2.36 37.1537 2.36 36.5052V3.49473C2.36 2.84389 2.8887 2.31578 3.54 2.31578H55.46C56.109 2.31578 56.64 2.84389 56.64 3.49473V36.5052Z" fill="white"/>
<path d="M1.17969 10.5684H57.8197V15.2841H1.17969V10.5684Z" fill="white"/>
<path d="M57.82 9.38947H1.18C0.528695 9.38947 0 9.91757 0 10.5684V15.2842C0 15.935 0.528695 16.4631 1.18 16.4631H57.82C58.4713 16.4631 59 15.935 59 15.2842V10.5684C59 9.91757 58.4713 9.38947 57.82 9.38947ZM56.64 14.1053H2.36V11.7474H56.64V14.1053ZM31.86 23.5368H10.62C9.9687 23.5368 9.44 24.0651 9.44 24.7158C9.44 25.3665 9.9687 25.8947 10.62 25.8947H31.86C32.5113 25.8947 33.04 25.3665 33.04 24.7158C33.04 24.0649 32.5113 23.5368 31.86 23.5368ZM22.42 28.2526H10.62C9.9687 28.2526 9.44 28.7808 9.44 29.4316C9.44 30.0823 9.9687 30.6105 10.62 30.6105H22.42C23.0713 30.6105 23.6 30.0823 23.6 29.4316C23.6 28.7808 23.0713 28.2526 22.42 28.2526Z" fill="white"/>
</g>
<defs>
<clipPath id="clip0_6385_267">
<rect width="59" height="40" fill="white"/>
</clipPath>
</defs>
</svg>
