<svg width="16" height="16" viewBox="0 0 16 16" fill="none" xmlns="http://www.w3.org/2000/svg">
<g clip-path="url(#clip0_6228_287)">
<path d="M13.2346 1.92313C13.1627 1.84863 13.0765 1.78937 12.9812 1.7489C12.8859 1.70842 12.7834 1.68756 12.6799 1.68756C12.5763 1.68756 12.4739 1.70842 12.3786 1.7489C12.2833 1.78937 12.1971 1.84863 12.1252 1.92313L11.2801 2.76558C11.051 2.61778 10.8112 2.48721 10.5627 2.37496C10.3132 2.26331 10.0576 2.16593 9.79708 2.08329V0.781207C9.79938 0.678153 9.78046 0.575727 9.74148 0.4803C9.70251 0.384873 9.64431 0.298488 9.57051 0.226519C9.49859 0.15266 9.41222 0.0944216 9.31678 0.05544C9.22134 0.0164584 9.11889 -0.00242914 9.01583 -4.32411e-05H7.38952C7.28784 -0.000831883 7.18704 0.0188166 7.09309 0.057736C6.99915 0.0966553 6.91398 0.154052 6.84265 0.226519C6.76791 0.298039 6.70875 0.384223 6.66887 0.479671C6.62898 0.575119 6.60924 0.677775 6.61088 0.781207V1.9674C6.34232 2.03051 6.07863 2.11275 5.82182 2.2135C5.57187 2.30887 5.32869 2.42111 5.09395 2.54944L4.15775 1.62626C4.0893 1.55095 4.00559 1.49109 3.91219 1.45068C3.81879 1.41026 3.71784 1.39022 3.61609 1.39188C3.51259 1.39143 3.41007 1.41197 3.31473 1.45225C3.21939 1.49253 3.13321 1.55173 3.0614 1.62626L1.92338 2.76819C1.84887 2.84008 1.78961 2.92625 1.74914 3.02155C1.70867 3.11686 1.68781 3.21933 1.68781 3.32287C1.68781 3.42641 1.70867 3.52889 1.74914 3.62419C1.78961 3.71949 1.84887 3.80566 1.92338 3.87756L2.76583 4.72261C2.61803 4.95176 2.48746 5.19157 2.3752 5.44006C2.26309 5.68846 2.1657 5.94324 2.08353 6.20308H0.781451C0.678397 6.20077 0.575971 6.2197 0.480544 6.25867C0.385118 6.29765 0.298733 6.35585 0.226763 6.42964C0.152904 6.50157 0.0946657 6.58794 0.0556841 6.68338C0.0167025 6.77882 -0.002185 6.88127 0.0002009 6.98433V8.61063C-0.000587743 8.71232 0.0190608 8.81312 0.0579801 8.90707C0.0968995 9.00101 0.154296 9.08617 0.226763 9.15751C0.298089 9.2325 0.384237 9.29183 0.479731 9.33173C0.575224 9.37164 0.677975 9.39123 0.781451 9.38928H1.96895C2.03162 9.6578 2.11343 9.9215 2.21374 10.1783C2.31189 10.4326 2.42404 10.6813 2.54968 10.9231L1.6239 11.8489C1.54859 11.9174 1.48873 12.0011 1.44832 12.0945C1.4079 12.1879 1.38786 12.2888 1.38952 12.3906C1.38907 12.4941 1.40961 12.5966 1.44989 12.6919C1.49017 12.7873 1.54937 12.8735 1.6239 12.9453L2.76583 14.1002C2.91631 14.2408 3.11457 14.319 3.32051 14.319C3.52646 14.319 3.72472 14.2408 3.8752 14.1002L4.72025 13.2421C4.94983 13.3892 5.18959 13.5197 5.4377 13.6328C5.68725 13.7465 5.94284 13.8465 6.20333 13.9322V15.2278C6.20228 15.3307 6.22178 15.4328 6.26067 15.528C6.29956 15.6233 6.35707 15.7098 6.42982 15.7826C6.50258 15.8553 6.58912 15.9128 6.68437 15.9517C6.77963 15.9906 6.88169 16.0101 6.98458 16.0091H8.61088C8.71256 16.0099 8.81337 15.9902 8.90731 15.9513C9.00125 15.9124 9.08642 15.855 9.15775 15.7825C9.23275 15.7112 9.29208 15.625 9.33198 15.5295C9.37188 15.434 9.39148 15.3313 9.38952 15.2278V14.0416C9.65801 13.9794 9.9217 13.898 10.1786 13.7981C10.4331 13.7005 10.6818 13.5884 10.9234 13.4622L11.8492 14.3763C11.9199 14.4504 12.005 14.5094 12.0992 14.5497C12.1934 14.59 12.2949 14.6108 12.3973 14.6108C12.4998 14.6108 12.6012 14.59 12.6955 14.5497C12.7897 14.5094 12.8748 14.4504 12.9455 14.3763L14.1005 13.2356C14.2411 13.0849 14.3194 12.8865 14.3194 12.6803C14.3194 12.4741 14.2411 12.2757 14.1005 12.125L13.2411 11.2799C13.3889 11.0508 13.5195 10.811 13.6317 10.5625C13.7454 10.3129 13.8454 10.0573 13.9312 9.79683H15.2268C15.3296 9.79788 15.4317 9.77838 15.527 9.73949C15.6222 9.7006 15.7088 9.64309 15.7815 9.57034C15.8543 9.49758 15.9118 9.41104 15.9507 9.31578C15.9896 9.22053 16.0091 9.11847 16.008 9.01558V7.38928C16.0088 7.2876 15.9892 7.18679 15.9502 7.09285C15.9113 6.99891 15.8539 6.91374 15.7815 6.8424C15.7101 6.76741 15.624 6.70808 15.5285 6.66818C15.433 6.62828 15.3302 6.60868 15.2268 6.61063H14.0406C13.9753 6.34553 13.894 6.08464 13.7971 5.82938C13.7025 5.57618 13.5902 5.32991 13.4611 5.0924L14.3843 4.15751C14.4596 4.08906 14.5195 4.00534 14.5599 3.91194C14.6003 3.81854 14.6204 3.7176 14.6187 3.61584C14.6191 3.51234 14.5986 3.40983 14.5583 3.31449C14.518 3.21915 14.4588 3.13297 14.3843 3.06115L13.2424 1.92313H13.2346ZM8.0002 3.22522C9.1035 3.22514 10.1727 3.60756 11.0257 4.30735C11.8787 5.00714 12.4627 5.981 12.6782 7.06305C12.8937 8.14509 12.7274 9.26839 12.2077 10.2416C11.6879 11.2148 10.8469 11.9777 9.82773 12.4004C8.80861 12.8231 7.67446 12.8794 6.61849 12.5597C5.56252 12.24 4.65005 11.564 4.03651 10.6471C3.42296 9.7301 3.1463 8.62878 3.25364 7.53071C3.36098 6.43264 3.84569 5.40575 4.6252 4.62496C5.06794 4.18117 5.59404 3.82927 6.17324 3.5895C6.75244 3.34973 7.37333 3.22681 8.0002 3.22782V3.22522Z" fill="white"/>
<path fill-rule="evenodd" clip-rule="evenodd" d="M8.00033 4.27979C8.73645 4.27953 9.45612 4.4976 10.0683 4.9064C10.6805 5.31521 11.1576 5.8964 11.4395 6.57644C11.7213 7.25648 11.7951 8.00483 11.6515 8.72682C11.508 9.44881 11.1535 10.112 10.633 10.6325C10.1125 11.1531 9.4493 11.5075 8.72731 11.6511C8.00532 11.7946 7.25697 11.7208 6.57693 11.439C5.89688 11.1572 5.3157 10.68 4.90689 10.0678C4.49808 9.45563 4.28002 8.73596 4.28027 7.99984C4.28062 7.01332 4.67266 6.06731 5.37023 5.36974C6.0678 4.67217 7.01381 4.28013 8.00033 4.27979ZM6.84147 7.40479L7.50293 8.02848L9.06543 6.44385C9.19564 6.31364 9.27637 6.20687 9.43652 6.37093L9.95736 6.90218C10.1279 7.07145 10.1188 7.17041 9.95736 7.32666L7.79981 9.45166C7.46126 9.78369 7.51986 9.80452 7.17611 9.46338L5.96908 8.26286C5.95283 8.24732 5.94029 8.22833 5.93239 8.20729C5.92449 8.18625 5.92142 8.1637 5.92343 8.14131C5.92543 8.11892 5.93244 8.09727 5.94395 8.07797C5.95546 8.05866 5.97117 8.04219 5.98991 8.02979L6.59147 7.40609C6.68262 7.30973 6.75553 7.31885 6.85189 7.40609L6.84147 7.40479Z" fill="white"/>
</g>
<defs>
<clipPath id="clip0_6228_287">
<rect width="16" height="16" fill="white"/>
</clipPath>
</defs>
</svg>
