<svg width="32" height="32" viewBox="0 0 32 32" fill="none" xmlns="http://www.w3.org/2000/svg">
<path d="M28.5769 2.03804C28.5777 1.93869 28.5535 1.84073 28.5065 1.75318C28.4596 1.66562 28.3913 1.59128 28.3081 1.53698C28.2249 1.48269 28.1294 1.45019 28.0303 1.44246C27.9313 1.43474 27.8319 1.45204 27.7413 1.49278C24.0085 3.23005 19.6147 2.70917 16.3916 0.147418C16.2834 0.0524012 16.1444 0 16.0004 0C15.8565 0 15.7174 0.0524012 15.6093 0.147418C12.3726 2.67642 7.99778 3.19501 4.25958 1.49278C4.16896 1.45204 4.06955 1.43474 3.97049 1.44246C3.87144 1.45019 3.77591 1.48269 3.6927 1.53698C3.60949 1.59128 3.54126 1.66562 3.49429 1.75318C3.44733 1.84073 3.42312 1.93869 3.42391 2.03804C3.42391 2.1625 3.4654 14.3834 3.42391 18.4314C3.4002 20.5946 8.44977 27.6178 15.6982 31.9206C15.7883 31.9726 15.8905 32 15.9945 32C16.0985 32 16.2007 31.9726 16.2908 31.9206C23.5511 27.6178 28.6006 20.5946 28.5769 18.4314C28.5354 14.3834 28.5769 2.1625 28.5769 2.03804ZM27.3916 18.4373C27.3916 19.7412 23.2429 26.2902 16.0004 30.7174C8.73425 26.2961 4.5974 19.7471 4.60926 18.4432C4.64482 15.0235 4.62111 5.81929 4.60926 2.9152C6.49209 3.60417 8.5152 3.82072 10.5012 3.54586C12.4872 3.271 14.3755 2.51313 16.0004 1.33869C17.6254 2.51313 19.5136 3.271 21.4996 3.54586C23.4856 3.82072 25.5087 3.60417 27.3916 2.9152C27.3916 5.81336 27.3619 15.0235 27.3916 18.4373Z" fill="#45CCD2"/>
<path d="M25.4829 5.64144C25.4837 5.54209 25.4595 5.44413 25.4126 5.35657C25.3656 5.26902 25.2974 5.19468 25.2142 5.14038C25.1309 5.08609 25.0354 5.05359 24.9364 5.04586C24.8373 5.03814 24.7379 5.05544 24.6473 5.09618C21.938 6.36991 18.7414 6.00275 16.3914 4.14791C16.2832 4.05289 16.1442 4.00049 16.0002 4.00049C15.8562 4.00049 15.7172 4.05289 15.609 4.14791C13.2585 5.98126 10.0836 6.35583 7.37089 5.11989C7.28027 5.07915 7.18086 5.06185 7.0818 5.06957C6.98274 5.07729 6.88722 5.1098 6.80401 5.16409C6.7208 5.21838 6.65257 5.29272 6.6056 5.38028C6.55863 5.46783 6.53443 5.56579 6.53522 5.66515C6.53522 5.75405 6.56485 14.8042 6.53522 17.8031C6.51744 19.4329 10.2868 24.7077 15.6979 27.92C15.788 27.972 15.8902 27.9994 15.9943 27.9994C16.0983 27.9994 16.2005 27.972 16.2906 27.92C21.7136 24.7077 25.4829 19.4329 25.4829 17.7794C25.4533 14.7804 25.4829 5.73627 25.4829 5.64144ZM24.2976 17.7794C24.2976 18.615 21.3342 23.4335 16.0002 26.6694C10.7076 23.4157 7.70278 18.5973 7.70278 17.7794C7.74427 15.3613 7.70278 8.88928 7.70278 6.51859C9.07923 7.00271 10.5521 7.14775 11.9966 6.9414C13.441 6.73505 14.8144 6.18341 16.0002 5.33325C17.186 6.18341 18.5594 6.73505 20.0038 6.9414C21.4483 7.14775 22.9212 7.00271 24.2976 6.51859V17.7794Z" fill="#45CCD2"/>
</svg>
