<svg width="77" height="67" viewBox="0 0 77 67" fill="none" xmlns="http://www.w3.org/2000/svg">
<g clip-path="url(#clip0_6902_166)">
<path d="M58.0373 20.052H53.3853V44.0438H58.0373V20.052Z" fill="#3AE1EA"/>
<path d="M28.8408 41.4255L28.8027 41.5109L28.8408 41.4255Z" fill="#ECB35A"/>
<path d="M41.1034 22.4806H36.3087V27.2619H41.1034V22.4806Z" fill="white"/>
<path d="M47.3348 22.4806H42.54V27.2619H47.3348V22.4806Z" fill="white"/>
<path d="M41.1034 28.296H36.3087V33.0772H41.1034V28.296Z" fill="white"/>
<path d="M47.3348 28.296H42.54V33.0772H47.3348V28.296Z" fill="white"/>
<path d="M25.7584 16.3238C23.7892 16.3238 22.1909 17.9175 22.1909 19.8813C22.1909 17.9175 20.6022 16.3238 18.6234 16.3238C20.5927 16.3238 22.1909 14.7395 22.1909 12.7758C22.2004 14.73 23.7892 16.3238 25.7584 16.3238Z" fill="white"/>
<path d="M18.8136 21.1145C17.4818 21.1145 16.4068 22.1865 16.4068 23.5147C16.4068 22.1865 15.3317 21.1145 13.9999 21.1145C15.3317 21.1145 16.4068 20.0426 16.4068 18.7144C16.3972 20.0426 17.4818 21.1145 18.8136 21.1145Z" fill="white"/>
<path d="M22.0673 26.7306C21.0398 26.7306 20.2122 27.5655 20.2122 28.5805C20.2122 27.556 19.3845 26.7306 18.3571 26.7306C19.3845 26.7306 20.2122 25.9053 20.2122 24.8807C20.2122 25.8958 21.0398 26.7306 22.0673 26.7306Z" fill="white"/>
<path d="M58.0372 39.4048V44.0438H43.1583V43.9869L44.709 42.488L46.878 40.363H46.9066L47.6296 39.6515L47.896 39.4048H58.0372Z" fill="#3AE1EA"/>
<path d="M19.8505 24.3021L26.3861 17.7847V24.3021H19.8505Z" fill="#3AE1EA"/>
<path d="M27.1472 17.0258L30.2486 13.9332V20.498L27.1472 23.5906V17.0258Z" fill="#3AE0EA"/>
<path d="M63.7927 24.3021H57.2094L41.8263 8.95266L31.0096 19.739V13.1742L41.8263 2.38788L45.1179 5.67027L63.7927 24.3021Z" fill="#3AE1EA"/>
<path d="M31.0097 31.142V32.2235H26.3958V31.142H27.1568V10.2144C27.1568 9.36056 27.8513 8.66803 28.7075 8.66803C29.1356 8.66803 29.5256 8.83879 29.8015 9.12339C30.0774 9.3985 30.2582 9.78746 30.2582 10.2144V31.142H31.0097Z" fill="#FFB91D"/>
<path d="M30.2487 10.2144V31.4645H27.1569V10.2144C27.1569 9.36056 27.8513 8.66803 28.7075 8.66803C29.1356 8.66803 29.5257 8.83879 29.8016 9.12339C30.0679 9.3985 30.2487 9.78746 30.2487 10.2144Z" fill="#FFB91D"/>
<path d="M34.0826 34.0259C34.0921 34.1018 34.1016 34.1682 34.1016 34.2346H23.2659C23.2754 34.1587 23.2849 34.0923 23.2944 34.0259C23.3039 33.95 23.3705 33.8931 23.4466 33.8931H33.9303C34.0064 33.8931 34.073 33.95 34.0826 34.0259Z" fill="#FFB91D"/>
<path d="M34.1491 33.4757H23.2563V33.1436C23.3325 32.6314 23.5703 32.1665 23.9223 31.8155C24.3504 31.3886 24.9307 31.1325 25.5776 31.1325H27.1568V30.3735H30.2487V31.1325H31.8088C32.9885 31.1325 33.9684 32.0052 34.1301 33.1436C34.1491 33.2575 34.1491 33.3713 34.1491 33.4757Z" fill="#FFB91D"/>
<path d="M34.1491 33.4757H23.2278C23.2278 33.3618 23.2373 33.2575 23.2468 33.1437C23.3229 32.6314 23.5608 32.1665 23.9127 31.8155C24.3408 31.3886 24.9212 31.1325 25.5681 31.1325H31.8088C32.9885 31.1325 33.9684 32.0053 34.1301 33.1437C34.1491 33.2575 34.1491 33.3713 34.1491 33.4757Z" fill="#FFB91D"/>
<path d="M19.4415 38.5985L17.5388 39.1392C17.5388 39.1392 17.5388 39.1298 17.5293 39.1298C17.5008 39.0823 17.4627 39.0349 17.4342 38.978C17.4152 38.94 17.3866 38.9021 17.3676 38.8641C17.3486 38.8357 17.3295 38.7977 17.3105 38.7693C17.282 38.7218 17.2534 38.6744 17.2344 38.627C17.2154 38.589 17.1868 38.5511 17.1678 38.5036C17.0537 38.2854 16.949 38.0483 16.8444 37.8206L16.8253 37.7732L16.8063 37.7257L16.7968 37.6973L16.7778 37.6403L16.7587 37.5929L16.7397 37.555C16.7302 37.536 16.7207 37.5075 16.7112 37.4886C16.7968 37.6688 17.0917 37.7921 17.263 37.8965C17.7481 38.1811 18.2619 38.4088 18.8136 38.5226C18.8707 38.5321 18.9278 38.5416 18.9849 38.5511C19.042 38.5606 19.099 38.57 19.1561 38.57C19.1847 38.57 19.2132 38.5795 19.2417 38.5795C19.2703 38.5795 19.2988 38.589 19.3274 38.589C19.3464 38.589 19.3654 38.589 19.3749 38.589C19.4035 38.5985 19.4225 38.5985 19.4415 38.5985Z" fill="#FFB91D"/>
<path d="M23.2563 33.4757V33.1437C23.3229 33.1342 23.38 33.1247 23.4466 33.1247H33.9303C33.9969 33.1247 34.0635 33.1342 34.1301 33.1437C34.1491 33.248 34.1491 33.3619 34.1491 33.4757H23.2563Z" fill="#FFB91D"/>
<path d="M34.1016 34.2346C34.0921 34.1682 34.0825 34.0923 34.0825 34.0259C34.073 33.95 34.0064 33.8931 33.9303 33.8931H23.4371C23.361 33.8931 23.2944 33.95 23.2849 34.0259C23.2754 34.1018 23.2659 34.1682 23.2564 34.2346C23.1041 35.3635 22.7426 36.5019 22.0291 37.3937C21.9435 37.498 21.8579 37.5929 21.7628 37.6783C21.7342 37.7067 21.7057 37.7352 21.6771 37.7542C21.6391 37.7826 21.6105 37.8206 21.5725 37.849C21.5344 37.8775 21.5059 37.906 21.4678 37.9249C21.4012 37.9724 21.3347 38.0293 21.2585 38.0672L34.1206 34.4243L34.1016 34.2346Z" fill="#FFB91D"/>
<path d="M42.1498 39.7938C41.1509 40.6286 40.152 41.5963 38.8773 41.9947C38.5919 42.0801 38.2969 42.137 38.002 42.1655C36.8414 42.2793 35.8615 41.9188 34.8626 41.3876C34.758 41.3307 34.6628 41.2737 34.5582 41.2168C34.5392 41.2073 34.5011 41.1884 34.4726 41.1789L34.4916 41.1884C34.4916 41.1884 34.5011 41.1884 34.5011 41.1978C34.5201 41.2073 34.5392 41.2168 34.5582 41.2263L34.5677 41.2358C35.0529 41.5299 35.4049 42.2698 35.2146 42.8201C34.8816 43.8067 33.3215 43.3229 32.6936 42.9813C31.7898 42.488 31.0478 41.6532 30.6387 40.714C30.7719 41.0176 30.9051 41.3307 31.0383 41.6342L32.0086 43.8446L32.0372 43.9205L32.0467 43.9395C31.0287 44.1197 29.7825 44.2526 28.365 44.2336C27.1758 44.2146 26.1103 44.0913 25.2161 43.9395C25.2256 43.911 25.2446 43.8826 25.2636 43.8446L26.253 41.7291L26.2721 41.6911C26.4148 41.4065 26.548 41.1125 26.6811 40.8279C26.7002 40.7899 26.7192 40.752 26.7382 40.7045L26.6336 40.9322V40.9417C26.0437 42.118 24.9592 43.1426 23.6178 43.3513C22.9234 43.4557 22.1433 43.3323 22.1433 42.4785C22.1433 41.9568 22.4096 41.5109 22.8092 41.2358C22.0481 41.7291 21.0397 42.1655 20.1359 42.2129C20.1169 42.2129 20.1074 42.2129 20.0884 42.2129C18.1477 42.3078 16.5684 41.0555 15.2366 39.8033C15.6266 40.1733 16.3496 40.344 16.8729 40.401C17.1773 40.4389 17.4817 40.4674 17.7957 40.4579C18.024 40.4579 18.4901 40.4674 18.6709 40.3156C18.4331 39.8982 17.9289 39.6895 17.653 39.291C17.6244 39.2436 17.5864 39.1961 17.5578 39.1487C17.5578 39.1392 17.5483 39.1392 17.5483 39.1297C17.5198 39.0823 17.4912 39.0349 17.4627 38.9874C17.4437 38.9495 17.4151 38.9116 17.3961 38.8736C17.3771 38.8357 17.3485 38.7882 17.3295 38.7503C17.32 38.7408 17.32 38.7313 17.3105 38.7218C17.2915 38.6934 17.2724 38.6554 17.2629 38.6269C17.2534 38.608 17.2439 38.5985 17.2344 38.5795C17.2249 38.5605 17.2058 38.5321 17.1963 38.5036C17.1773 38.4657 17.1583 38.4277 17.1392 38.3898C17.1392 38.3803 17.1297 38.3708 17.1297 38.3613C17.1202 38.3423 17.1107 38.3234 17.1012 38.3044C17.0917 38.2854 17.0822 38.2665 17.0726 38.2475C17.0441 38.1906 17.0251 38.1431 16.9965 38.0862C16.949 37.9913 16.9109 37.906 16.8729 37.8111L16.8538 37.7637L16.8348 37.7162L16.7968 37.6973L16.7777 37.6403L16.7587 37.5929L16.7397 37.555C16.7302 37.536 16.7207 37.5075 16.7111 37.4885C16.7968 37.6688 17.0917 37.7921 17.2629 37.8965C17.7481 38.1811 18.2618 38.4088 18.8136 38.5226C18.9278 38.5416 19.0419 38.5605 19.1561 38.5795C19.1846 38.5795 19.2132 38.589 19.2417 38.589C19.2893 38.589 19.3368 38.5985 19.3844 38.5985C19.4034 38.5985 19.4224 38.5985 19.4415 38.5985C19.4605 38.5985 19.4795 38.5985 19.5081 38.5985C19.5461 38.5985 19.5747 38.5985 19.6127 38.5985C19.6222 38.5985 19.6317 38.5985 19.6317 38.5985C19.6603 38.5985 19.6793 38.5985 19.7078 38.5985C19.7364 38.5985 19.7554 38.5985 19.784 38.589C19.7935 38.589 19.7935 38.589 19.803 38.589C19.822 38.589 19.841 38.589 19.8601 38.5795C19.8696 38.5795 19.8791 38.5795 19.8886 38.5795C19.9076 38.5795 19.9267 38.5795 19.9457 38.57C19.9647 38.57 19.9837 38.5605 20.0028 38.5605C20.0313 38.5605 20.0598 38.5511 20.0884 38.5416C20.1264 38.5321 20.155 38.5321 20.1835 38.5226C20.2216 38.5131 20.2596 38.5036 20.2882 38.4941C20.2882 38.4941 20.2882 38.4941 20.2977 38.4941C20.3357 38.4847 20.3738 38.4752 20.4118 38.4657C20.4594 38.4562 20.507 38.4372 20.5545 38.4182C20.5926 38.4088 20.6211 38.3993 20.6497 38.3803C20.6972 38.3613 20.7448 38.3423 20.7829 38.3234C20.8019 38.3139 20.8209 38.3044 20.8495 38.2949C20.8685 38.2854 20.8875 38.2759 20.9065 38.2665C20.9351 38.257 20.9541 38.2475 20.9826 38.2285C21.0112 38.219 21.0302 38.2 21.0587 38.1906C21.0683 38.1811 21.0873 38.1811 21.0968 38.1716C21.1158 38.1621 21.1444 38.1526 21.1634 38.1336C21.2014 38.1147 21.2395 38.0862 21.268 38.0672C21.3441 38.0198 21.4107 37.9724 21.4773 37.9249C21.5154 37.8965 21.5439 37.868 21.582 37.849C21.62 37.8206 21.6581 37.7921 21.6866 37.7542C21.7152 37.7257 21.7437 37.6973 21.7722 37.6783C21.8674 37.5834 21.953 37.4885 22.0386 37.3937C22.7521 36.4924 23.1231 35.3635 23.2658 34.2346C23.2754 34.1587 23.2849 34.0923 23.2944 34.0259C23.3039 33.95 23.3705 33.8931 23.4466 33.8931H33.9303C34.0064 33.8931 34.073 33.95 34.0825 34.0259C34.092 34.1018 34.1016 34.1682 34.1016 34.2346C34.1111 34.301 34.1206 34.3769 34.1301 34.4433C34.2443 35.2402 34.5011 36.0466 34.8912 36.7391C35.3002 37.4885 35.9186 38.1052 36.7272 38.4088C37.9449 38.8546 39.2483 38.4562 40.2852 37.7637C40.4089 37.6783 40.5326 37.5929 40.6467 37.498L40.6277 37.536L40.6182 37.555C40.3804 38.1147 40.114 38.6839 39.7905 39.1961C39.4956 39.6515 39.1056 40.0974 38.6014 40.3251C38.7441 40.3156 38.8963 40.3346 39.039 40.344C39.5717 40.4104 40.114 40.4389 40.6563 40.363C41.189 40.2966 41.7122 40.1164 42.1498 39.7938Z" fill="#FFB91D"/>
<path d="M58.0087 7.43472H53.3757V32.6788H58.0087V7.43472Z" fill="#3AE1EA"/>
<path d="M5.62988 49.1357V50.4345H3.6377V56.0351H2.26074V50.4345H0.258789V49.1357H5.62988ZM10.3809 56.0351L8.78906 53.5742H7.96875V56.0351H6.58691V49.1357H9.52637C10.1904 49.1357 10.7471 49.3522 11.1963 49.7851C11.6455 50.2148 11.8701 50.7519 11.8701 51.3964C11.8701 51.8847 11.7269 52.316 11.4404 52.6904C11.1572 53.0615 10.7829 53.3203 10.3174 53.4667L12.041 56.0351H10.3809ZM7.96875 50.4345V52.373H9.49707C9.76725 52.373 9.99349 52.2818 10.1758 52.0995C10.3581 51.914 10.4492 51.6829 10.4492 51.4062C10.4492 51.1295 10.3581 50.8984 10.1758 50.7128C9.99349 50.5273 9.76725 50.4345 9.49707 50.4345H7.96875ZM17.7686 56.0351L17.2754 54.6972H14.3164L13.8281 56.0351H12.3389L14.9951 49.1357H16.626L19.2773 56.0351H17.7686ZM14.7754 53.4228H16.8066L15.7959 50.6542L14.7754 53.4228ZM24.624 49.1357H26.0059V56.0351H24.6045L21.4648 51.5038V56.0351H20.083V49.1357H21.4844L24.624 53.6669V49.1357ZM29.8096 56.1572C29.2855 56.1572 28.763 56.0595 28.2422 55.8642C27.7246 55.6656 27.29 55.402 26.9385 55.0732L27.6514 54.0234C27.9378 54.2968 28.2731 54.5165 28.6572 54.6826C29.0446 54.8453 29.4287 54.9267 29.8096 54.9267C30.1611 54.9267 30.4606 54.8518 30.708 54.7021C30.9554 54.5523 31.0791 54.3603 31.0791 54.1259C31.0791 54.0445 31.0612 53.9697 31.0254 53.9013C30.9928 53.8297 30.9554 53.7695 30.9131 53.7206C30.8708 53.6686 30.8024 53.6181 30.708 53.5693C30.6169 53.5172 30.5387 53.4781 30.4736 53.4521C30.4118 53.4228 30.3158 53.3886 30.1855 53.3495C30.0586 53.3105 29.9626 53.2844 29.8975 53.2714C29.8356 53.2551 29.7331 53.2291 29.5898 53.1933C29.3164 53.1282 29.0641 53.0533 28.833 52.9687C28.6019 52.8841 28.3822 52.7799 28.1738 52.6562C27.9688 52.5292 27.7946 52.3893 27.6514 52.2363C27.5081 52.0833 27.3942 51.9059 27.3096 51.704C27.2282 51.499 27.1875 51.2792 27.1875 51.0449C27.1875 50.4329 27.43 49.9413 27.915 49.5703C28.4001 49.1992 29.0316 49.0136 29.8096 49.0136C30.3076 49.0136 30.7633 49.0917 31.1768 49.248C31.5934 49.4042 31.9336 49.6126 32.1973 49.873L31.5576 50.913C31.3558 50.7177 31.0938 50.5582 30.7715 50.4345C30.4525 50.3076 30.1253 50.2441 29.79 50.2441C29.445 50.2441 29.1618 50.3141 28.9404 50.454C28.7191 50.594 28.6084 50.7714 28.6084 50.9863C28.6084 51.1132 28.6475 51.2272 28.7256 51.3281C28.8037 51.429 28.9144 51.5152 29.0576 51.5869C29.2008 51.6552 29.3424 51.7122 29.4824 51.7578C29.6224 51.8001 29.7852 51.8424 29.9707 51.8847C30.0911 51.9107 30.2051 51.9384 30.3125 51.9677C30.4232 51.9938 30.568 52.0377 30.7471 52.0995C30.9261 52.1614 31.0889 52.2298 31.2354 52.3046C31.3851 52.3762 31.5413 52.4706 31.7041 52.5878C31.8669 52.705 32.0036 52.832 32.1143 52.9687C32.2249 53.1022 32.3161 53.2649 32.3877 53.457C32.4626 53.6458 32.5 53.8492 32.5 54.0673C32.5 54.471 32.3812 54.8339 32.1436 55.1562C31.9059 55.4752 31.582 55.7226 31.1719 55.8984C30.765 56.0709 30.3109 56.1572 29.8096 56.1572ZM37.915 50.4345H34.8047V51.9872H37.5146V53.2861H34.8047V56.0351H33.4229V49.1357H37.915V50.4345ZM40.2832 54.7363H43.5938V56.0351H38.9014V49.1357H43.5449V50.4345H40.2832V51.914H43.2129V53.2128H40.2832V54.7363ZM48.5059 56.0351L46.9141 53.5742H46.0938V56.0351H44.7119V49.1357H47.6514C48.3154 49.1357 48.8721 49.3522 49.3213 49.7851C49.7705 50.2148 49.9951 50.7519 49.9951 51.3964C49.9951 51.8847 49.8519 52.316 49.5654 52.6904C49.2822 53.0615 48.9079 53.3203 48.4424 53.4667L50.166 56.0351H48.5059ZM46.0938 50.4345V52.373H47.6221C47.8923 52.373 48.1185 52.2818 48.3008 52.0995C48.4831 51.914 48.5742 51.6829 48.5742 51.4062C48.5742 51.1295 48.4831 50.8984 48.3008 50.7128C48.1185 50.5273 47.8923 50.4345 47.6221 50.4345H46.0938ZM56.6895 49.1357H58.3936V56.0351H57.0117V51.2939L55.1025 54.7949H54.3213L52.4219 51.2939V56.0351H51.04V49.1357H52.7637L54.7217 52.7245L56.6895 49.1357ZM64.6338 56.0351L64.1406 54.6972H61.1816L60.6934 56.0351H59.2041L61.8604 49.1357H63.4912L66.1426 56.0351H64.6338ZM61.6406 53.4228H63.6719L62.6611 50.6542L61.6406 53.4228ZM66.9482 56.0351V49.1357H68.3301V56.0351H66.9482ZM72.4316 49.1357C72.9264 49.1357 73.3919 49.2236 73.8281 49.3994C74.2643 49.5751 74.637 49.816 74.9463 50.122C75.2588 50.4247 75.5046 50.7893 75.6836 51.2158C75.8626 51.6422 75.9521 52.0979 75.9521 52.5829C75.9521 53.068 75.8626 53.5237 75.6836 53.9501C75.5046 54.3766 75.2588 54.7428 74.9463 55.0488C74.637 55.3548 74.2643 55.5956 73.8281 55.7714C73.3919 55.9472 72.9264 56.0351 72.4316 56.0351H69.7314V49.1357H72.4316ZM72.4023 54.7363C73.0111 54.7363 73.5173 54.5312 73.9209 54.121C74.3278 53.7109 74.5312 53.1982 74.5312 52.5829C74.5312 51.9677 74.3278 51.4566 73.9209 51.0497C73.5173 50.6396 73.0111 50.4345 72.4023 50.4345H71.1133V54.7363H72.4023Z" fill="white"/>
<path d="M13.6773 65.1083C13.3648 65.1083 13.0572 65.0497 12.7545 64.9326C12.4518 64.8134 12.1988 64.6552 11.9957 64.4579L12.3678 63.913C12.5338 64.079 12.733 64.2128 12.9654 64.3144C13.1998 64.414 13.4371 64.4638 13.6773 64.4638C13.9176 64.4638 14.1197 64.412 14.2838 64.3085C14.4479 64.205 14.5299 64.0712 14.5299 63.9072C14.5299 63.8427 14.5162 63.7831 14.4889 63.7285C14.4615 63.6718 14.4205 63.623 14.3658 63.582C14.3111 63.541 14.2564 63.5058 14.2018 63.4765C14.1471 63.4453 14.0758 63.4169 13.9879 63.3915C13.902 63.3642 13.8307 63.3437 13.774 63.33C13.7193 63.3144 13.6471 63.2968 13.5572 63.2773C13.358 63.2304 13.1773 63.1738 13.0152 63.1074C12.8531 63.039 12.7037 62.955 12.567 62.8554C12.4303 62.7558 12.3238 62.6347 12.2477 62.4921C12.1715 62.3476 12.1334 62.1874 12.1334 62.0117C12.1334 61.6562 12.276 61.3691 12.5611 61.1503C12.8463 60.9316 13.2164 60.8222 13.6715 60.8222C13.9625 60.8222 14.2301 60.8691 14.4742 60.9628C14.7184 61.0566 14.9186 61.1816 15.0748 61.3378L14.7379 61.8798C14.6207 61.7587 14.4635 61.6591 14.2662 61.581C14.0709 61.5029 13.8687 61.4638 13.6598 61.4638C13.4293 61.4638 13.2398 61.5126 13.0914 61.6103C12.9449 61.7079 12.8717 61.8339 12.8717 61.9882C12.8717 62.2714 13.1676 62.4726 13.7594 62.5917C13.8336 62.6074 13.9029 62.624 13.9674 62.6415C14.0318 62.6591 14.1178 62.6865 14.2252 62.7236C14.3326 62.7607 14.4293 62.8007 14.5152 62.8437C14.6012 62.8867 14.692 62.9433 14.7877 63.0136C14.8854 63.082 14.9664 63.1562 15.0309 63.2363C15.0973 63.3144 15.152 63.4091 15.1949 63.5204C15.2379 63.6318 15.2594 63.7509 15.2594 63.8779C15.2594 64.2392 15.109 64.5351 14.8082 64.7656C14.5074 64.9941 14.1305 65.1083 13.6773 65.1083ZM18.2658 65.0351V60.8954H18.9777V65.0351H18.2658ZM25.0662 60.8954H25.7811V65.0351H25.0545L22.9832 62.1083V65.0351H22.2713V60.8954H22.9949L25.0662 63.8222V60.8954ZM31.1518 62.7617H33.1205V63.0019C33.1205 63.4003 33.0307 63.7607 32.851 64.0829C32.6713 64.4033 32.4213 64.6542 32.101 64.8359C31.7826 65.0175 31.4242 65.1083 31.0258 65.1083C30.723 65.1083 30.4379 65.0536 30.1703 64.9443C29.9027 64.8329 29.6732 64.6826 29.4818 64.4931C29.2924 64.3036 29.142 64.0771 29.0307 63.8134C28.9213 63.5478 28.8666 63.2646 28.8666 62.9638C28.8666 62.5634 28.9604 62.2001 29.1479 61.874C29.3373 61.5458 29.598 61.289 29.9301 61.1035C30.2621 60.916 30.6313 60.8222 31.0375 60.8222C31.3988 60.8222 31.7318 60.8964 32.0365 61.0449C32.3432 61.1913 32.5902 61.3935 32.7777 61.6513L32.2387 62.0761C32.1078 61.8984 31.9389 61.7597 31.7318 61.6601C31.5268 61.5585 31.3012 61.5078 31.0551 61.5078C30.6391 61.5078 30.2924 61.6464 30.015 61.9238C29.7377 62.2011 29.599 62.5478 29.599 62.9638C29.599 63.3818 29.7367 63.7294 30.0121 64.0068C30.2895 64.2841 30.6352 64.4228 31.0492 64.4228C31.3891 64.4228 31.6801 64.3281 31.9223 64.1386C32.1664 63.9492 32.3158 63.7021 32.3705 63.3974H31.1518V62.7617ZM38.8809 65.0351L38.5469 64.1533H36.6631L36.3262 65.0351H35.5586L37.1904 60.8954H38.0371L39.6689 65.0351H38.8809ZM36.915 63.4941H38.2949L37.6035 61.6747L36.915 63.4941ZM44.3658 60.8954C44.6236 60.8954 44.858 60.954 45.0689 61.0712C45.2818 61.1865 45.4488 61.3476 45.5699 61.5546C45.691 61.7617 45.7516 61.9921 45.7516 62.246C45.7516 62.6288 45.6188 62.9482 45.3531 63.204C45.0875 63.4599 44.7584 63.5878 44.3658 63.5878H43.3199V65.0351H42.608V60.8954H44.3658ZM44.3541 62.9169C44.5436 62.9169 44.7018 62.8535 44.8287 62.7265C44.9557 62.5976 45.0191 62.4374 45.0191 62.246C45.0191 62.0507 44.9557 61.8886 44.8287 61.7597C44.7018 61.6308 44.5436 61.5663 44.3541 61.5663H43.3199V62.9169H44.3541ZM50.7004 65.1083C50.3957 65.1083 50.1086 65.0536 49.8391 64.9443C49.5715 64.8329 49.342 64.6826 49.1506 64.4931C48.9592 64.3036 48.8078 64.0771 48.6965 63.8134C48.5852 63.5478 48.5295 63.2646 48.5295 62.9638C48.5295 62.5634 48.6232 62.2001 48.8107 61.874C49.0002 61.5458 49.2609 61.289 49.593 61.1035C49.925 60.916 50.2941 60.8222 50.7004 60.8222C51.1086 60.8222 51.4787 60.916 51.8107 61.1035C52.1447 61.289 52.4064 61.5458 52.5959 61.874C52.7854 62.2001 52.8801 62.5634 52.8801 62.9638C52.8801 63.2646 52.8244 63.5478 52.7131 63.8134C52.6018 64.0771 52.4494 64.3036 52.2561 64.4931C52.0647 64.6826 51.8342 64.8329 51.5647 64.9443C51.2951 65.0536 51.007 65.1083 50.7004 65.1083ZM50.7004 64.4169C51.1125 64.4169 51.4563 64.2783 51.7316 64.0009C52.009 63.7236 52.1477 63.3779 52.1477 62.9638C52.1477 62.5497 52.009 62.205 51.7316 61.9296C51.4563 61.6523 51.1125 61.5136 50.7004 61.5136C50.2902 61.5136 49.9475 61.6523 49.6721 61.9296C49.3986 62.205 49.2619 62.5497 49.2619 62.9638C49.2619 63.3779 49.3996 63.7236 49.675 64.0009C49.9504 64.2783 50.2922 64.4169 50.7004 64.4169ZM58.283 65.0351L57.2166 63.4941H56.6746V65.0351H55.9627V60.8954H57.6824C58.0691 60.8954 58.3924 61.0204 58.6521 61.2704C58.9139 61.5204 59.0447 61.8329 59.0447 62.2079C59.0447 62.5204 58.95 62.79 58.7605 63.0165C58.573 63.2431 58.3279 63.3896 58.0252 63.456L59.1414 65.0351H58.283ZM56.6746 61.5663V62.8701H57.6707C57.8543 62.8701 58.0066 62.8076 58.1277 62.6826C58.2508 62.5556 58.3123 62.3994 58.3123 62.2138C58.3123 62.0283 58.2508 61.874 58.1277 61.7509C58.0066 61.6279 57.8543 61.5663 57.6707 61.5663H56.6746ZM62.8363 64.3642H64.9076V65.0351H62.1244V60.8954H64.8783V61.5663H62.8363V62.6181H64.6791V63.289H62.8363V64.3642Z" fill="#FAD33E"/>
</g>
<defs>
<clipPath id="clip0_6902_166">
<rect width="77" height="67" fill="white"/>
</clipPath>
</defs>
</svg>
